<?xml version="1.0" standalone="no"?>
<!DOCTYPE svg PUBLIC "-//W3C//DTD SVG 20010904//EN"
 "http://www.w3.org/TR/2001/REC-SVG-20010904/DTD/svg10.dtd">
<svg version="1.0" xmlns="http://www.w3.org/2000/svg"
 width="1024.000000pt" height="1024.000000pt" viewBox="0 0 1024.000000 1024.000000"
 preserveAspectRatio="xMidYMid meet">

<g transform="translate(0.000000,1024.000000) scale(0.100000,-0.100000)"
fill="#000000" stroke="none">
<path d="M4793 6870 c-868 -50 -1676 -292 -2283 -685 -145 -93 -177 -144 -167
-259 6 -74 195 -961 502 -2361 34 -151 64 -268 74 -278 17 -20 20 -20 146 12
300 78 736 158 1005 186 315 32 402 36 882 42 893 10 1341 -31 2098 -194 280
-59 264 -57 279 -39 7 8 21 54 31 103 10 48 48 225 85 393 97 448 410 1918
434 2037 26 127 26 176 0 229 -36 76 -89 112 -399 272 -96 50 -238 119 -315
153 -322 142 -837 284 -1250 343 -297 43 -808 64 -1122 46z m669 -548 l33 -32
3 -350 3 -350 327 0 c365 0 374 -2 419 -69 23 -33 23 -39 23 -323 0 -326 -2
-339 -69 -376 -38 -21 -49 -22 -369 -22 l-331 0 -3 -339 -3 -340 -30 -31 c-16
-17 -45 -35 -65 -41 -22 -6 -140 -9 -313 -7 l-279 3 -34 37 -34 38 0 340 0
340 -339 0 c-335 0 -338 0 -372 23 -58 39 -59 44 -59 367 0 430 -33 400 437
400 l333 0 0 333 c0 367 1 375 65 417 29 19 44 20 327 18 l298 -3 32 -33z"/>
<path d="M4510 3239 c-296 -10 -678 -35 -920 -60 -299 -30 -520 -58 -541 -69
-24 -13 -33 -50 -25 -95 5 -25 16 -40 39 -52 30 -17 146 -18 2052 -18 1649 0
2026 2 2051 13 36 15 54 48 54 96 0 66 -7 68 -421 110 -745 77 -1521 102
-2289 75z"/>
</g>
</svg>
